# xmcd CD database file
#
# Track frame offsets:
#	187
#	53630
#	85475
#	116472
#	150925
#	179285
#
# Disc length: 3014 seconds
#
# Revision: 1
# Processed by: cddbd v1.5.1PL2 Copyright (c) Steve Scherf et al.
# Submitted via: CDex 1.51
#
DISCID=3d0bc406
DTITLE=Jackie McLean/John Jenkins - Alto Madness
DYEAR=1957
DGENRE=Jazz
TTITLE0=Alto Madness
TTITLE1=Windy City
TTITLE2=The Lady Is A Tramp
TTITLE3=Easy Living
TTITLE4=Pondering
TTITLE5=Bird Feathers
EXTD=YEAR: 1957
EXTT0=
EXTT1=
EXTT2=
EXTT3=
EXTT4=
EXTT5=
PLAYORDER=
